<?xml version="1.0" encoding="UTF-8"?>
<svg width="752pt" height="752pt" version="1.1" viewBox="0 0 752 752" xmlns="http://www.w3.org/2000/svg">
 <defs>
  <clipPath id="a">
   <path d="m139.21 208h473.58v336h-473.58z"/>
  </clipPath>
 </defs>
 <g clip-path="url(#a)">
  <path d="m391.41 215.8 215.77 296.11c11.211 15.879 4.6719 31.758-14.945 31.758h-80.332c-6.2773-1.5938-11.656-5.6289-14.945-11.207l-115.83-168.14-4.6719-3.7383 0.003906-152.25c6.0859-1.0742 12.156 1.9609 14.945 7.4727zm-29.891 0-216.71 296.11c-11.211 15.879-5.6055 31.758 14.012 31.758h80.332-0.003906c6.2773-1.5938 11.66-5.6289 14.945-11.207l116.76-168.14 4.6719-3.7383v-152.25c-5.7695-0.64844-11.34 2.3203-14.012 7.4727z" fill="#fff"/>
 </g>
</svg>
